<svg width="121" height="25" viewBox="0 0 121 25" fill="none" xmlns="http://www.w3.org/2000/svg">
<path d="M22.1037 10.1476C22.2042 9.64528 21.8023 9.04245 21.2999 9.04245L15.5731 8.23869L12.9608 3.0142C12.8604 2.81326 12.7599 2.71279 12.559 2.61232C12.0566 2.31091 11.4538 2.51185 11.1524 3.0142L8.6406 8.23869L2.91376 9.04245C2.61235 9.04245 2.4114 9.14292 2.31093 9.34387C1.90905 9.74575 1.90905 10.3486 2.31093 10.7505L6.43024 14.7693L5.42553 20.4961C5.42553 20.6971 5.42553 20.898 5.526 21.099C5.82741 21.6013 6.43024 21.8022 6.93259 21.5008L12.0566 18.7881L17.1806 21.5008C17.2811 21.6013 17.482 21.6013 17.683 21.6013H17.8839C18.3863 21.5008 18.7881 20.9985 18.6877 20.3957L17.683 14.6688L21.8023 10.65C22.0032 10.5495 22.1037 10.3486 22.1037 10.1476Z" fill="#E89322"/>
<path d="M46.2167 10.1476C46.3172 9.64528 45.9153 9.04245 45.413 9.04245L39.6861 8.23869L37.0739 3.0142C36.9734 2.81326 36.8729 2.71279 36.672 2.61232C36.1696 2.31091 35.5668 2.51185 35.2654 3.0142L32.7536 8.23869L27.0268 9.04245C26.7254 9.04245 26.5244 9.14292 26.424 9.34387C26.0221 9.74575 26.0221 10.3486 26.424 10.7505L30.5433 14.7693L29.5386 20.4961C29.5386 20.6971 29.5386 20.898 29.639 21.099C29.9404 21.6013 30.5433 21.8022 31.0456 21.5008L36.1696 18.7881L41.2937 21.5008C41.3941 21.6013 41.5951 21.6013 41.796 21.6013H41.9969C42.4993 21.5008 42.9012 20.9985 42.8007 20.3957L41.796 14.6688L45.9153 10.65C46.1163 10.5495 46.2167 10.3486 46.2167 10.1476Z" fill="#E89322"/>
<path d="M70.3298 10.1476C70.4302 9.64528 70.0283 9.04245 69.526 9.04245L63.7992 8.23869L61.1869 3.0142C61.0864 2.81326 60.986 2.71279 60.785 2.61232C60.2827 2.31091 59.6799 2.51185 59.3784 3.0142L56.8667 8.23869L51.1398 9.04245C50.8384 9.04245 50.6375 9.14292 50.537 9.34387C50.1351 9.74575 50.1351 10.3486 50.537 10.7505L54.6563 14.7693L53.6516 20.4961C53.6516 20.6971 53.6516 20.898 53.7521 21.099C54.0535 21.6013 54.6563 21.8022 55.1587 21.5008L60.2827 18.7881L65.4067 21.5008C65.5072 21.6013 65.7081 21.6013 65.909 21.6013H66.11C66.6123 21.5008 67.0142 20.9985 66.9138 20.3957L65.909 14.6688L70.0283 10.65C70.2293 10.5495 70.3298 10.3486 70.3298 10.1476Z" fill="#E89322"/>
<path d="M94.4426 10.1476C94.543 9.64528 94.1411 9.04245 93.6388 9.04245L87.9119 8.23869L85.2997 3.0142C85.1992 2.81326 85.0988 2.71279 84.8978 2.61232C84.3955 2.31091 83.7926 2.51185 83.4912 3.0142L80.9795 8.23869L75.2526 9.04245C74.9512 9.04245 74.7503 9.14292 74.6498 9.34387C74.2479 9.74575 74.2479 10.3486 74.6498 10.7505L78.7691 14.7693L77.7644 20.4961C77.7644 20.6971 77.7644 20.898 77.8649 21.099C78.1663 21.6013 78.7691 21.8022 79.2715 21.5008L84.3955 18.7881L89.5195 21.5008C89.62 21.6013 89.8209 21.6013 90.0218 21.6013H90.2228C90.7251 21.5008 91.127 20.9985 91.0265 20.3957L90.0218 14.6688L94.1411 10.65C94.3421 10.5495 94.4426 10.3486 94.4426 10.1476Z" fill="#E89322"/>
<path d="M118.556 10.1476C118.656 9.64528 118.254 9.04245 117.752 9.04245L112.025 8.23869L109.413 3.0142C109.312 2.81326 109.212 2.71279 109.011 2.61232C108.509 2.31091 107.906 2.51185 107.604 3.0142L105.093 8.23869L99.3657 9.04245C99.0643 9.04245 98.8633 9.14292 98.7628 9.34387C98.361 9.74575 98.361 10.3486 98.7628 10.7505L102.882 14.7693L101.877 20.4961C101.877 20.6971 101.877 20.898 101.978 21.099C102.279 21.6013 102.882 21.8022 103.384 21.5008L108.509 18.7881L113.633 21.5008C113.733 21.6013 113.934 21.6013 114.135 21.6013H114.336C114.838 21.5008 115.24 20.9985 115.14 20.3957L114.135 14.6688L118.254 10.65C118.455 10.5495 118.556 10.3486 118.556 10.1476Z" fill="#E89322"/>
</svg>
